<?xml version="1.0" encoding="utf-8"?>
<!-- Generator: Adobe Illustrator 17.0.0, SVG Export Plug-In . SVG Version: 6.00 Build 0)  -->
<!DOCTYPE svg PUBLIC "-//W3C//DTD SVG 1.1//EN" "http://www.w3.org/Graphics/SVG/1.1/DTD/svg11.dtd">
<svg version="1.1" id="Layer_1" xmlns="http://www.w3.org/2000/svg" xmlns:xlink="http://www.w3.org/1999/xlink" x="0px" y="0px"
	 width="20px" height="20px" viewBox="0 0 20 20" enable-background="new 0 0 20 20" xml:space="preserve">
<g>
	<g>
		<path fill="none" stroke="#FFFFFF" stroke-miterlimit="10" d="M10,14.357c2.403,0,4.341-1.953,4.341-4.341S12.388,5.674,10,5.674
			s-4.341,1.953-4.341,4.341S7.597,14.357,10,14.357z M10,6.93c1.705,0,3.085,1.38,3.085,3.085s-1.38,3.085-3.085,3.085
			s-3.085-1.38-3.085-3.085S8.295,6.93,10,6.93z"/>
		<path fill="none" stroke="#FFFFFF" stroke-miterlimit="10" d="M10.636,3.659v-2c0-0.357-0.279-0.636-0.636-0.636
			S9.364,1.302,9.364,1.659v2c0,0.357,0.279,0.636,0.636,0.636S10.636,4.016,10.636,3.659z"/>
		<path fill="none" stroke="#FFFFFF" stroke-miterlimit="10" d="M9.364,16.372v2c0,0.357,0.279,0.636,0.636,0.636
			s0.636-0.279,0.636-0.636v-2c0-0.357-0.279-0.636-0.636-0.636S9.364,16.016,9.364,16.372z"/>
		<path fill="none" stroke="#FFFFFF" stroke-miterlimit="10" d="M14.946,5.969l1.411-1.411c0.248-0.248,0.248-0.651,0-0.899
			c-0.248-0.248-0.651-0.248-0.899,0L14.047,5.07c-0.248,0.248-0.248,0.651,0,0.899c0.124,0.124,0.279,0.186,0.45,0.186
			C14.667,6.155,14.822,6.093,14.946,5.969z"/>
		<path fill="none" stroke="#FFFFFF" stroke-miterlimit="10" d="M3.643,16.372c0.124,0.124,0.279,0.186,0.45,0.186
			c0.155,0,0.326-0.062,0.45-0.186l1.411-1.411c0.248-0.248,0.248-0.651,0-0.899c-0.248-0.248-0.651-0.248-0.899,0l-1.411,1.411
			C3.395,15.721,3.395,16.124,3.643,16.372z"/>
		<path fill="none" stroke="#FFFFFF" stroke-miterlimit="10" d="M18.992,10.016c0-0.357-0.279-0.636-0.636-0.636h-2
			c-0.357,0-0.636,0.279-0.636,0.636s0.279,0.636,0.636,0.636h2C18.698,10.651,18.992,10.372,18.992,10.016z"/>
		<path fill="none" stroke="#FFFFFF" stroke-miterlimit="10" d="M1.643,10.651h2c0.357,0,0.636-0.279,0.636-0.636
			C4.279,9.659,4,9.38,3.643,9.38h-2c-0.357,0-0.636,0.279-0.636,0.636S1.302,10.651,1.643,10.651z"/>
		<path fill="none" stroke="#FFFFFF" stroke-miterlimit="10" d="M15.907,16.558c0.155,0,0.326-0.062,0.45-0.186
			c0.248-0.248,0.248-0.651,0-0.899l-1.411-1.411c-0.248-0.248-0.651-0.248-0.899,0c-0.248,0.248-0.248,0.651,0,0.899l1.411,1.411
			C15.581,16.496,15.752,16.558,15.907,16.558z"/>
		<path fill="none" stroke="#FFFFFF" stroke-miterlimit="10" d="M5.953,5.969c0.248-0.248,0.248-0.651,0-0.899L4.543,3.659
			c-0.248-0.248-0.651-0.248-0.899,0s-0.248,0.651,0,0.899l1.411,1.411c0.124,0.124,0.279,0.186,0.45,0.186
			C5.674,6.155,5.829,6.093,5.953,5.969z"/>
	</g>
</g>
</svg>
